<svg xmlns="http://www.w3.org/2000/svg" viewBox="0 0 1000 1000"><style>.st3{stroke:#fff;stroke-miterlimit:10}.st3,.st4{fill:#fff}</style><g id="Layer_2"><path stroke="#000" stroke-miterlimit="10" d="M-35.5-41.5h1091v1059h-1091z" id="Layer_3"/><path class="st3" d="M482.5 692.5s-18.08 25.29-102.86 94.07l-107 81a710.66 710.66 0 01-52.5 36.75c-28.22 17.92-45.86 29.13-71.64 38.18-26.24 9.21-52.49 18.43-82 9-7.65-2.44-27.49-9.09-40-28-7.22-10.91-8.91-21.22-11-34-4.05-24.74.08-44.31 2-52 3.19-12.76 7.31-20.75 15.14-35.93 11.01-21.36 18.47-35.38 29.86-36.07.6-.04 9-.43 13 5 10.53 14.27-28.9 42.23-32 90-.52 7.95-2.21 34.01 14 51 18.89 19.8 51.43 16.11 68 14 37.86-4.82 62.99-20.55 157-92 37.57-28.56 68.02-52.23 105.14-84.93 8.99-7.92 40.69-36.15 68.86-76.07 10.32-14.62 23.01-34.84 26.44-62.17 1.18-9.43.91-16.9.7-22.76-.69-18.96-1.51-41.59-15.89-62.98-8.21-12.21-17.41-18.92-27.25-26.09-9.23-6.73-20.38-14.86-25.48-11.47-5.01 3.33-.75 15.51.48 26.47 2.83 25.25-10.24 45.79-25 69-34.33 53.97-92.95 80.5-125 95-33.38 15.11-62.37 27.85-103 28-22.8.08-57.12.17-88-23-6.52-4.89-26.87-20.59-37-49-7.85-22.01-5.65-40.7-3.86-55.93 1.21-10.33 4.94-35.08 20.78-63.68 13.34-24.07 36.07-46.01 85.22-85.32 85-68 137-91 167-92s62 18 61 56c-.44 16.7-1.27 28.77-4.6 40.87-3.29 11.93-9.66 28.05-29.4 56.13-14.13 20.1-32 45.15-63.14 70.93 0 0-32.16 26.63-65 38-12.61 4.37-23.95 4.91-26 5-5.98.25-10.11.42-15-1-10.84-3.15-19.35-12.36-23-21-7.42-17.55 3.64-36.38 14-54 6.12-10.41 15.41-19.27 34-37 7.84-7.48 15.63-14.26 22-12 2.05.73 4.36 2.53 5 5 1.81 7.03-11.36 14.16-22 24-19.61 18.13-33.06 47.7-25 59 3.39 4.75 9.89 5.31 18 6 20.25 1.73 36.7-5.69 47-11 32.06-16.51 54.51-38.16 68-53 17.36-19.08 29.39-32.6 37-55 4.3-12.66 14-41.21-.86-61.93-1.09-1.52-6.61-8.99-17.37-14.06-25.37-11.96-55.68.77-76.63 11.06-75.48 37.09-142.16 69.86-170.14 145.93-6.86 18.66-24.95 67.83-1 103 12.11 17.78 31.94 27.53 35 29 19.33 9.26 36.85 9.23 54 9 22.11-.29 39.35-4.47 52-8 43.32-12.08 81.24-22.62 120-54 23.4-18.95 50-40.48 56-76 3.29-19.44 2.37-54.68-14-63-4.36-2.22-12.67-3.97-13.89-9.62-.71-3.29 1.07-7.5 3.89-9.38 3.32-2.22 9.14-1.93 9.14-1.93l38.86 4.93c12.45 2.63 37.91 9.8 62 31 26.59 23.4 36.1 50.33 38 56 8.79 26.15 6.42 48.1 5 60-4.93 41.46-24.99 70.21-37 87z"/><path class="st4" d="M553.68 461.18c-9.6 0-21.65-14.47-30.72-36.87-7.33-16.02-14.66-32.02-22.01-48.02-7.66-16.68-15.32-33.34-23-50l-.22-.49-.47.26c-7.62 4.15-19.91 9.09-35.14 9.09-1.52 0-3.07-.05-4.59-.15-28.85-1.89-46.83-21.01-51.65-26.82-24.5-29.55-16.07-67.59-12.9-78.54 4.21-14.56 12.55-27.83 15.93-32.86 3.89-5.77 7.56-11.22 14.02-17.09 5.52-5.02 18.45-16.77 37.59-17.69 1.05-.05 2.2-.1 3.53-.1 9.21 0 17.33 2.36 24.16 7.01 9.85 6.71 13.74 15.87 15.82 20.78 1.58 3.72 5.13 13.79 3.96 26.76-1 11.11-5.02 19.02-6.95 22.82-2.8 5.52-10.25 20.18-26.79 28.78-4.08 2.12-13.64 7.1-22.87 7.1-4.14 0-7.71-1.03-10.61-3.06-6.77-4.74-8.03-13.46-8.79-18.66-2.07-14.21 4.93-25.03 7.93-29.66 6.37-9.84 10.34-11.91 12.56-11.91.31 0 .61.04.89.12 1.88.52 3.26 2.72 3.64 4.62.69 3.36-1.63 5.86-4.56 9.01-2.84 3.06-6.06 6.52-7.43 11.76-1.79 6.79-.3 16.2 5.22 19.55 1.41.86 3.07 1.29 4.93 1.29 7.27 0 15.93-6.53 19.63-9.32 3.62-2.73 10.36-7.81 14.16-17.21 5.4-13.36 1.1-25.71-1.01-30.39-1.5-3.34-5.47-12.2-15.01-17.24-4.36-2.3-9.23-3.47-14.45-3.47-5.26 0-10.7 1.16-16.19 3.45-13.27 5.55-19.36 16.57-25.25 27.22-3.88 7.02-12.96 23.46-11.06 45.29.74 8.52 1.98 22.77 13.14 34.3 11.81 12.21 26.88 13.57 33.31 14.15 1.74.16 3.5.24 5.23.24 16.71 0 28.88-7.22 34.07-10.3 5.05-3 11.34-6.73 16.16-14.16 1.57-2.42 2.16-3.99 5.4-12.68l1.65-4.42c6.13-16.38 7.13-18.4 9.76-19.73 1.53-.77 3.38-1.18 5.37-1.18 4.5 0 8.82 1.97 11 5.02 2.82 3.94 2 9.21-3.67 23.45-5.84 14.7-9.96 21.83-12.68 26.56-2.49 4.31-3.99 6.92-4.74 11.62-.54 3.4-1.66 10.47 23.07 51.34 4.98 8.23 8.68 13.98 11.94 19.05 4.75 7.38 8.85 13.75 15.05 24.93 15.16 27.32 18.7 39.56 14 48.52-2.27 4.33-5.34 7.08-8.66 7.74-.54.13-1.11.19-1.7.19z"/><path class="st4" d="M444.05 162.4c9.1 0 17.14 2.33 23.88 6.92 9.73 6.63 13.58 15.69 15.64 20.56 1.56 3.69 5.08 13.66 3.92 26.52-.99 11.01-4.98 18.86-6.9 22.64-2.78 5.48-10.18 20.03-26.57 28.57-4.05 2.11-13.53 7.04-22.64 7.04-4.04 0-7.51-1-10.32-2.97-6.59-4.62-7.84-13.2-8.58-18.33-2.04-14.02 4.89-24.74 7.85-29.31 6.57-10.16 10.42-11.68 12.14-11.68.26 0 .52.03.76.1 1.67.46 2.94 2.53 3.29 4.24.64 3.11-1.6 5.52-4.44 8.57-2.88 3.1-6.14 6.61-7.55 11.97-1.83 6.97-.27 16.64 5.45 20.11 1.49.91 3.24 1.36 5.19 1.36 7.44 0 16.19-6.6 19.93-9.42 3.66-2.76 10.47-7.9 14.33-17.42 5.47-13.54 1.11-26.04-1.01-30.78-1.52-3.38-5.54-12.36-15.23-17.47-4.44-2.34-9.38-3.53-14.69-3.53-5.32 0-10.84 1.18-16.38 3.49-13.43 5.62-19.56 16.71-25.49 27.44-3.9 7.06-13.03 23.6-11.12 45.57.75 8.58 2 22.94 13.28 34.61 11.94 12.34 27.14 13.72 33.63 14.3 1.75.16 3.53.24 5.28.24 16.85 0 29.09-7.27 34.33-10.37 5.1-3.03 11.44-6.79 16.33-14.32 1.6-2.47 2.19-4.04 5.45-12.78.48-1.3 1.03-2.76 1.65-4.41 6.07-16.21 7.05-18.21 9.51-19.46 1.46-.74 3.24-1.12 5.15-1.12 4.28 0 8.53 1.93 10.59 4.81 2.7 3.77 1.86 8.93-3.72 22.98-5.83 14.67-9.93 21.78-12.65 26.49-2.52 4.36-4.04 7-4.8 11.79-.55 3.46-1.69 10.65 23.13 51.67 4.98 8.24 8.68 13.99 11.94 19.06 4.74 7.37 8.84 13.74 15.04 24.91 15.07 27.14 18.6 39.26 13.99 48.05-2.2 4.19-5.15 6.85-8.31 7.48-.52.11-1.07.16-1.62.16-4.44 0-9.59-3.3-14.89-9.54-5.55-6.53-10.86-15.87-15.39-27.05a38060.531 38060.531 0 00-45-98l-.45-.97-.94.51c-7.57 4.12-19.77 9.03-34.9 9.03-1.51 0-3.05-.05-4.56-.15-28.65-1.87-46.51-20.86-51.3-26.64-24.35-29.36-15.96-67.19-12.81-78.08 4.19-14.49 12.49-27.71 15.87-32.72 3.87-5.74 7.53-11.17 13.94-17 5.48-4.98 18.32-16.65 37.28-17.56 1.03-.06 2.17-.11 3.49-.11m0-1c-1.4 0-2.6.05-3.55.1-19.32.93-32.29 12.72-37.91 17.82-6.5 5.91-10.24 11.45-14.09 17.18-2.06 3.05-11.46 17.29-16 33-2.74 9.48-12.15 48.67 13 79 3.25 3.91 21.43 25 52 27 1.57.1 3.11.15 4.62.15 16.77 0 29.51-5.96 35.38-9.15 7.68 16.66 15.34 33.33 23 50 7.35 16 14.68 32 22 48 9.38 23.18 21.64 37.18 31.18 37.18.62 0 1.23-.06 1.82-.18 5.37-1.08 8.37-6.81 9-8 4.74-9.03 1.55-20.99-14-49-10.46-18.83-14.73-23.72-27-44-24.12-39.86-23.58-47.37-23-51 1.55-9.74 6.27-10.08 17.39-38.07 5.41-13.6 6.71-19.59 3.61-23.93-2.37-3.32-7.01-5.23-11.4-5.23-2 0-3.94.39-5.6 1.23-2.87 1.45-3.91 3.74-10 20-4.78 12.76-5.23 14.27-7 17-4.66 7.18-10.72 10.87-16 14-5.15 3.06-17.24 10.23-33.81 10.23a57.9 57.9 0 01-5.19-.23c-6.15-.56-21.32-1.92-33-14-11.03-11.41-12.26-25.45-13-34-1.85-21.24 6.66-37.15 11-45 5.83-10.55 11.89-21.52 25-27 1.82-.76 8.17-3.42 16-3.42 4.45 0 9.38.86 14.22 3.42 9.38 4.96 13.23 13.54 14.79 17 1.51 3.37 6.63 16.07 1 30-3.67 9.09-10.02 14-14 17-3.58 2.7-12.23 9.22-19.33 9.22-1.67 0-3.26-.36-4.67-1.22-5.21-3.16-6.77-12.28-5-19 2.78-10.56 13.43-13.99 12-21-.44-2.15-1.97-4.44-4-5a3.98 3.98 0 00-1.02-.14c-5.12 0-11.32 9.58-12.98 12.14-3.11 4.8-10.1 15.61-8 30 .75 5.16 2.06 14.13 9 19 3.27 2.29 7.05 3.16 10.9 3.16 9.36 0 19.14-5.09 23.1-7.16 16.68-8.68 24.11-23.32 27-29 2.16-4.26 6.01-12.02 7-23 1.27-14.1-2.99-24.62-4-27-2.04-4.8-6.02-14.2-16-21-9.08-6.18-18.54-7.1-24.46-7.1z"/><path class="st3" d="M609.5 314.5c8.33 21 16.67 42 25 63 0 0 5 11 12 9 4.87-1.39 8.56-4.35 8.87-4.74 5.7-7.22-.04-18.37-11.87-51.26-5.5-15.29-9.67-27.9-13-38a1459.76 1459.76 0 01-8-25l-9-27c-1.65-3.46-6.63-15.01-3-29 2.65-10.22 8.54-16.45 11-19 3.15-3.26 14.88-15.38 32-14 12.4 1 20.4 8.5 23 11 2.67 2.58 11.84 11.42 12 25 .02 2.1.15 13.32-8 21-1.18 1.12-5.45 5.03-12 6-2.36.35-5.78.86-9-1-4.78-2.75-5.79-8.76-6-10-1.28-7.62 3.37-11.62.75-15.37-1.48-2.11-4.47-3.01-6.75-2.63-6.51 1.09-8.63 12.96-9 15-2.02 11.29 2.99 20.27 4 22 1.41 2.42 5.47 9.16 14 13 10.22 4.6 19.6 1.76 22 1 7.03-2.24 11.37-6.4 13-8 3.85-3.77 5.8-7.49 7.16-10.14 3.44-6.68 4.35-12.51 4.84-15.86 1.08-7.3.47-12.94 0-17-.55-4.81-1.43-11.92-5-20-5.68-12.84-14.66-20.17-17-22-3.8-2.98-16.75-12.8-35-12-14.99.65-25.43 8.11-31.63 12.53-6.43 4.59-10.26 9.11-11.37 10.47a56.257 56.257 0 00-8 13c-1.06 1.1-2.51 2.23-4 2-1.03-.16-2.56-1.04-6-11-1.14-3.3-2.07-6.37-4-11-1.5-3.6-2.34-5.08-4-6-2.06-1.14-5.05-1.21-7 0-5.27 3.27-2.83 15.77-2 20 1.46 7.46 3.64 11.33 9 23 3.2 6.97 7.21 15.7 10 23 4.63 12.12 6.05 20.72 8 30 2.49 11.85 6.66 28.79 14 50zM741.5 172.5c-5.09 11.18-25.04 58.66-7 114 3.59 11.01 11.72 35 34 57 29.13 28.77 63.08 34.99 75 37 16.6 2.8 44.67 7.58 74-7 40.27-20.02 52.69-61.07 56-72 9.18-30.33 4.31-55.69 2-67-3.17-15.53-9.02-44.14-34-67-6.87-6.29-27.42-25.09-59-26-28.96-.84-49.19 13.89-56 19-22.9 17.19-30.6 39.74-33 47-3.01 9.09-9.14 27.67-3 50 1.66 6.04 9.69 35.23 38 47 5.08 2.11 28.63 11.07 51-2 5.73-3.35 21.96-14.32 25-35 2.7-18.33-6.24-35.63-19-45-1.13-.83-19.8-14.18-35-7-1.76.83-10.61 5.31-11 13-.19 3.7 1.57 8.27 5 10 3.25 1.64 5.3-.63 12-1 2.25-.13 9.18-.51 15 3 5.65 3.41 7.85 9.06 9 12 3.52 9.02 4.25 23.63-5 33-5.93 6.01-13.37 7.24-18 8-2.72.45-12.6 1.94-23-3-10.65-5.06-15.68-13.94-19-20-5.48-10.01-15.22-34.21-4-60 8.66-19.91 28.61-38.03 53-39 22.37-.89 38.15 13.06 46 20 29.53 26.11 30.95 64 31 73 .06 10.39.24 40.18-21 63-26.63 28.62-72.28 30.5-104 17-60.74-25.85-62.94-104.91-63-110-.66-53.95 33.99-90.63 42-98 12.34-11.35 20-15 20-15 3.28-1.56 10.43-4.6 21-10 5.04-2.57 9.64-5.06 10-9 .16-1.75-.51-3.85-2-5-2.13-1.64-5.23-.8-8 0-10.44 2.99-15.66 4.49-17 5-11.9 4.5-10.58 3.24-17 6 0 0-8.7 3.73-17 9-9.18 5.82-29.97 24.16-44 55zM531.5 809.5c-6.82-7.62-15.07-18.86-21-34-3.36-8.58-8.58-22.35-7.42-40.63.97-15.3 5.93-26.25 7.42-29.37 2.82-5.91 7.61-15.69 18-24 2.85-2.28 16.17-12.49 35-13 22.05-.6 36.5 12.5 58 32 17.9 16.24 16.7 22.13 16 24-1.29 3.44-5.76 6.18-10 6-12.03-.5-17.17-24.3-25-23-1.31.22-2.87 2.15-6 6-4.18 5.16-6.64 10-8 13-3.48 7.69-4.69 14.22-5 16-2.26 13.05.71 20.11-4 24-1.97 1.62-4.38 1.95-6 2-1.72-.36-4.07-1.13-6-3-2.28-2.2-4.56-6.48-2-22 2.49-15.08 4.58-27.77 14-38 2.81-3.04 11-11 11-11h-1c-2.15-2.43-6.4-6.56-13-9-11.46-4.24-21.68-.33-25 1-14.15 5.67-20.2 18.25-22 22-6.69 13.92-4.6 26.99-3 37 .72 4.51 3.9 22.11 17 40 6.79 9.27 14.97 16.88 28 29 12.09 11.25 19.09 16.41 18 23-.83 4.98-6.02 9.16-11 10-6.01 1.01-11.14-2.95-19-10-7.49-6.72-17.21-16-28-28zM642.5 688.5s-13-13-14-19 6.65-20.01 9.33-23.5c2.67-3.5 4.67-9.5 2.67-11.5s-7.18-7.57-12.09-1.79c-7 8.25-7.2 18.88-11.91 20.79-1.98.8-5.65.39-13-7-.24-.32-2.37-3.01-6-3-.36 0-3.43.06-5.5 2.5-1.86 2.18-1.73 4.87-1.67 5.9.29 5.83 5.79 9.88 11.17 14.6 6.56 5.76 11.92 12.74 18 19 3.83 3.94 9.37 9.74 16 17 4 3.67 8 7.33 12 11 3.19 2.27 7.19 2.12 9.43 0 2.43-2.3 1.85-6.05 1.81-6.31-.32-1.88-1.32-3.16-1.81-3.77-4.26-5.29-13.29-13.85-14.43-14.92z"/><path class="st3" d="M674.5 654.5c9.19 16.25 6.26 10.06 10 17 2.5 4.64 8.58 16.28 16 22 .86.67 3.39 2.52 7 3 1.42.19 4.13.55 6-1 .7-.58 2.03-2.05 2-6-.05-7.7-4.9-15.67-15-31-6.59-10.01-7.32-11.21-10-15-4.63-6.56-8.79-11.97-12-16-5.33-7.67-10.67-15.33-16-23-1.68-2.48-4.29-7.17-3-12 .4-1.51 1.12-2.79 4-6 8.37-9.33 12.9-10.33 14.06-15.61.11-.52.83-4.02-1.06-7.39-1.79-3.21-5.44-5.41-9-5.36-4.12.06-6.98 3.12-10 6.36-5.64 6.05-5.95 10.74-9 11-2.07.18-3.76-1.81-7-6-5.48-7.08-8.22-10.62-11-15-7.5-11.82-13.16-20.74-18-20-3.56.55-7.06 6.39-7 12 .13 11.55 15.27 16.05 23 34 1.16 2.71 2.5 6.51 1 10-1.53 3.55-4.66 3.65-9 7-5.88 4.55-11.52 13.19-9.21 19.22 1.09 2.84 4.04 5.35 7.21 5.78 2.43.33 4.39-.64 6.06-1.5 2.43-1.25 4.54-3.04 7.94-7.5 5.56-7.29 5.73-9.64 7.75-9.98 3.38-.56 6.9 5.37 10.25 10.98 7.97 13.35 16.35 26.46 24 40zM775.5 565.5s24 60.32 29.5 64.66c1.64 1.29 6.74 3.35 9.5 1.34 1.68-1.22 1.92-3.59 2-5 .79-14.23-5-26-5-26-11.25-22.88-22-42-22-42-2.25-4.01-5.99-10.63-10-20-2.33-5.44-3.97-10-5-13-.4-1.29-.75-3.18 0-5 1.35-3.26 5.21-3.86 11-6 7.6-2.81 13.48-4.99 16-10 1.39-2.75 2.15-7.13 0-10-1.6-2.14-4.37-2.84-5-3-2.29-.58-4.18-.18-5 0-1.68.37-2.65.98-6 3-1.66 1-3.35 1.97-5 3-7.44 4.64-11.89 7.41-15 6-1.66-.75-2.37-2.44-3-4-5.81-14.38-8.72-21.57-10-25-4.03-10.76-6.24-13.33-9-14-1.4-.34-3.94-.43-6 1-2.18 1.52-2.77 4.03-3 5-1.51 6.46 3.2 13.46 8 23 5.6 11.13 8.41 16.7 7 20-2.46 5.77-10.61 3.51-23 13-8.16 6.25-8.1 9.91-8 11 .29 2.99 2.82 6.22 6 7 4.85 1.19 7.42-4.23 18-9 5.77-2.6 9.95-4.48 14-3 4.01 1.47 5.53 5.37 10 16 1.92 4.55 4.99 11.8 9 21zM833.5 530.5c-3.42 4.05-8.43 11.11-11 21-7.18 27.69 12 49.88 13 51 3.71 4.15 15.21 17.02 34 18 14.4.75 31.43-5.56 40-20 9.01-15.17 3.98-31.4 1-41-1.89-6.09-8.46-27.3-29-37-4.11-1.94-17.28-8.16-32-3-8.09 2.84-13.33 7.94-16 11z"/><path d="M881.5 539.5c-.55 3.95-15.14.4-24 9-7.1 6.89-8.01 19.14-5 28 3.16 9.29 10.44 14.25 13 16 2.12 1.44 5.72 3.9 11 5 6.33 1.32 10.49-.27 11 1 .66 1.64-5.13 7.12-12 9-12.35 3.38-27.96-4.92-36-17-10.68-16.03-4.77-33.81-4-36 1.3-3.71 5.11-14.55 16-20 2.04-1.02 10.49-4.94 20-2 3.96 1.22 10.37 4.34 10 7z" stroke="#fff" stroke-miterlimit="10"/><path class="st3" d="M927.5 548.5c4.33 4 8.67 8 13 12-.11 3.76-.5 9.78-2 17-2.25 10.86-5.01 14.79-12 34 0 0-3.06 8.4-7 22-4.4 15.16-5.25 21.13-2 25.14.14.17 3.61 4.32 8 3.86 4.63-.49 8.47-5.93 22-51 4.41-14.7 5.88-20.38 7-25 4.69-19.39 2.71-18.19 6-30 1.57-5.63 9.85-34.04 12-45 .25-1.28.91-4.91-1-8-.44-.72-1.73-2.79-4-3-1.89-.17-3.83 1.01-5 3-2.33 8.67-4.67 17.33-7 26-.63 3.18-3.2 15.08-8.68 15.74-2.19.26-3.93-1.4-7.32-4.74 0 0-2.79-2.75-22-21-7.11-6.76-10.02-8.71-13-8-2.35.56-4.39 2.68-5 5-.91 3.46 1.38 7.19 9 15 4.33 4.44 10.63 10.45 19 17z"/></g></svg>